<svg width="220" height="180" viewBox="0 0 220 180" fill="none" xmlns="http://www.w3.org/2000/svg">
  <path d="M22 111C31.373 77.154 57.474 46 96 46C142.944 46 171 84.316 171 116.5C171 148.684 144.187 162 121 162C97.813 162 83 151.076 83 136C83 120.924 95.03 109 109.5 109C123.97 109 135 119.808 135 132.5C135 145.192 124.665 153 111 153" stroke="#73C6F3" stroke-width="7" stroke-linecap="round" stroke-linejoin="round"/>
  <path d="M44 26L47.363 34.637L56 38L47.363 41.363L44 50L40.637 41.363L32 38L40.637 34.637L44 26Z" fill="#FFC857"/>
  <path d="M184 34L187.057 41.943L195 45L187.057 48.057L184 56L180.943 48.057L173 45L180.943 41.943L184 34Z" fill="#FF8BA7"/>
  <circle cx="27" cy="140" r="8" fill="#C4F1E7"/>
  <circle cx="193" cy="121" r="10" fill="#DBEAFE"/>
</svg>
